<svg width="85" height="83" viewBox="0 0 85 83" fill="none" xmlns="http://www.w3.org/2000/svg">
<path d="M75.1435 2.00372C72.6578 0.439241 69.7279 0.258554 66.3986 1.47032C56.9062 4.92526 47.743 20.2033 45.8128 32.7739L39.7633 16.1531C39.6215 15.7637 39.3309 15.4465 38.9553 15.2714C38.5798 15.0963 38.15 15.0775 37.7606 15.2192C37.3712 15.361 37.054 15.6516 36.8789 16.0272C36.7038 16.4027 36.685 16.8325 36.8267 17.2219L42.8762 33.8427C33.3173 25.4538 16.4774 19.6401 6.98502 23.0951C3.68141 24.2975 1.51275 26.3339 0.62884 29.1248C-1.54045 35.8422 4.0711 45.4351 9.86388 53.9269C13.1376 58.7297 17.0284 61.5619 21.4402 62.3422C23.1877 62.6445 24.976 62.6208 26.7149 62.2722C26.0863 64.3484 25.897 66.5327 26.1588 68.6861C26.4207 70.8395 27.1281 72.9147 28.236 74.7797C29.3438 76.6447 30.8279 78.2586 32.5937 79.5186C34.3594 80.7786 36.3682 81.6571 38.4921 82.0983C40.616 82.5394 42.8085 82.5334 44.93 82.0808C47.0515 81.6281 49.0555 80.7387 50.8144 79.4691C52.5733 78.1995 54.0485 76.5776 55.1463 74.7066C56.244 72.8357 56.9401 70.7566 57.1903 68.6019C58.7664 70.0937 60.6361 71.2408 62.68 71.9701C64.724 72.6994 66.8975 72.995 69.062 72.8379C71.2265 72.6808 73.3346 72.0745 75.2518 71.0577C77.1691 70.0409 78.8535 68.6359 80.1978 66.9321C81.542 65.2283 82.5166 63.2632 83.0594 61.162C83.6022 59.0608 83.7013 56.8695 83.3505 54.7279C82.9997 52.5862 82.2065 50.5412 81.0217 48.723C79.8368 46.9048 78.2861 45.3533 76.4685 44.1675C78.0243 43.3154 79.409 42.1829 80.5528 40.827C83.4309 37.3934 84.5856 32.7081 84.0115 26.9393C82.9796 16.7147 81.1231 5.75512 75.1435 2.00372ZM45.9224 78.7597C42.9192 79.8165 39.6264 79.692 36.7115 78.4116C33.7966 77.1311 31.4774 74.7903 30.224 71.8637C28.9706 68.937 28.8767 65.6432 29.9613 62.6499C31.0459 59.6566 33.2279 57.1875 36.0652 55.743C36.2503 55.6516 36.4155 55.5246 36.5516 55.3694C36.6876 55.2141 36.7917 55.0336 36.858 54.8381C36.9243 54.6426 36.9514 54.4359 36.9378 54.2299C36.9242 54.024 36.8701 53.8227 36.7787 53.6376C36.6873 53.4525 36.5604 53.2872 36.4051 53.1512C36.2499 53.0151 36.0693 52.911 35.8738 52.8448C35.6783 52.7785 35.4717 52.7514 35.2657 52.765C35.0597 52.7786 34.8584 52.8326 34.6733 52.924C32.1383 54.1829 29.9968 56.1125 28.4816 58.5032C20.2781 62.0045 14.5479 55.2607 12.4618 52.179C7.41659 44.7703 1.84286 35.5669 3.61371 30.0961C4.19786 28.2291 5.65688 26.904 8.05383 26.0316C18.875 22.093 42.5289 32.8884 46.402 43.5296L53.3933 62.7383C54.5272 65.8535 54.3771 69.2917 52.976 72.2963C51.575 75.3009 49.0377 77.6258 45.9224 78.7597ZM80.8999 27.253C81.2727 30.95 81.2193 39.8029 72.6932 42.3949C69.9934 41.5436 67.112 41.448 64.3617 42.1183C63.9567 42.2172 63.6076 42.473 63.3912 42.8293C63.1747 43.1856 63.1087 43.6133 63.2076 44.0183C63.3065 44.4233 63.5622 44.7724 63.9185 44.9888C64.2748 45.2053 64.7025 45.2713 65.1075 45.1724C67.4584 44.5945 69.9264 44.7094 72.2134 45.5034C74.5004 46.2973 76.5087 47.7364 77.9957 49.6467C79.4828 51.5571 80.385 53.8571 80.5935 56.269C80.802 58.6809 80.3079 61.1016 79.1707 63.2388C78.0336 65.376 76.302 67.1383 74.1852 68.313C72.0684 69.4877 69.6568 70.0244 67.2416 69.8585C64.8263 69.6925 62.5108 68.831 60.5745 67.3778C58.6383 65.9247 57.164 63.9421 56.3299 61.6695L49.3385 42.4608C45.4641 31.8159 56.6462 8.34544 67.4674 4.40686C69.8643 3.53444 71.8337 3.61162 73.4833 4.64905C78.349 7.70428 80.0025 18.3345 80.8999 27.253Z" fill="white"/>
</svg>
