<svg width="76" height="75" viewBox="0 0 76 75" fill="none" xmlns="http://www.w3.org/2000/svg">
<rect x="0.75" y="0.25" width="74.5" height="74.5" rx="37.25" stroke="#00A3E0" stroke-width="0.5"/>
<path d="M38.5 39.0834C36.4888 39.0834 34.5599 39.8823 33.1378 41.3045C31.7156 42.7266 30.9167 44.6555 30.9167 46.6667C30.9167 48.6779 31.7156 50.6068 33.1378 52.0289C34.5599 53.4511 36.4888 54.25 38.5 54.25C40.5112 54.25 42.4401 53.4511 43.8622 52.0289C45.2844 50.6068 46.0834 48.6779 46.0834 46.6667C46.0834 44.6555 45.2844 42.7266 43.8622 41.3045C42.4401 39.8823 40.5112 39.0834 38.5 39.0834ZM35.25 46.6667C35.25 45.8048 35.5924 44.9781 36.2019 44.3686C36.8114 43.7591 37.6381 43.4167 38.5 43.4167C39.362 43.4167 40.1886 43.7591 40.7981 44.3686C41.4076 44.9781 41.75 45.8048 41.75 46.6667C41.75 47.5287 41.4076 48.3553 40.7981 48.9648C40.1886 49.5743 39.362 49.9167 38.5 49.9167C37.6381 49.9167 36.8114 49.5743 36.2019 48.9648C35.5924 48.3553 35.25 47.5287 35.25 46.6667Z" fill="#00A3E0"/>
<path d="M50.473 23.0847L43.5852 13.4279L18.259 33.6602L16.855 33.645V33.6667H15.75V59.6667H61.25V33.6667H59.1657L55.0187 21.5355L50.473 23.0847ZM54.5875 33.6667H32.8602L49.043 28.1504L52.3407 27.0952L54.5875 33.6667ZM46.1917 24.545L29.4867 30.239L42.7163 19.67L46.1917 24.545ZM20.0833 51.3662V41.9629C20.9974 41.6389 21.8277 41.1151 22.5137 40.4295C23.1996 39.744 23.7239 38.9139 24.0483 38H52.9517C53.276 38.9143 53.8002 39.7446 54.4861 40.4306C55.172 41.1165 56.0024 41.6407 56.9167 41.965V51.3684C56.0024 51.6926 55.172 52.2169 54.4861 52.9028C53.8002 53.5887 53.276 54.4191 52.9517 55.3334H24.0527C23.7281 54.4183 23.2033 53.5873 22.5165 52.901C21.8298 52.2146 20.9985 51.6903 20.0833 51.3662Z" fill="#00A3E0"/>
</svg>
