<svg width="76" height="75" viewBox="0 0 76 75" fill="none" xmlns="http://www.w3.org/2000/svg">
<rect x="0.75" y="0.25" width="74.5" height="74.5" rx="37.25" stroke="#00A3E0" stroke-width="0.5"/>
<path d="M32 47.035L24.4817 39.5167C24.0766 39.1116 23.5271 38.884 22.9542 38.884C22.3812 38.884 21.8318 39.1116 21.4267 39.5167C21.0216 39.9218 20.794 40.4713 20.794 41.0442C20.794 41.3279 20.8498 41.6088 20.9584 41.8709C21.067 42.133 21.2261 42.3711 21.4267 42.5717L30.4833 51.6284C31.3283 52.4734 32.6933 52.4734 33.5383 51.6284L56.4617 28.705C56.8668 28.2999 57.0944 27.7505 57.0944 27.1775C57.0944 26.6046 56.8668 26.0552 56.4617 25.65C56.0566 25.2449 55.5071 25.0173 54.9342 25.0173C54.3612 25.0173 53.8118 25.2449 53.4067 25.65L32 47.035Z" fill="#00A3E0"/>
</svg>
