<?xml version="1.0" encoding="UTF-8"?>
<svg id="Layer_1" data-name="Layer 1" xmlns="http://www.w3.org/2000/svg" viewBox="0 0 1080 1080">
  <defs>
    <style>
      .cls-1 {
        fill: #f4e511;
      }

      .cls-2 {
        fill: #e11f8e;
      }

      .cls-3 {
        fill: #0ca0db;
      }
    </style>
  </defs>
  <path class="cls-1" d="m379.99,491.71c-.53-4.78-1.07-9.55-1.59-14.33-1.43-13.04.06-25.64,5.12-37.86,3.97-9.61,10.38-17.27,18.88-22.8,18.04-11.75,37.36-14.78,57.54-5.88,14.13,6.23,22.79,17.59,27.67,31.95,6.83,20.08,3.89,39.81-2.51,59.36-1.21,3.7-2.54,7.37-3.8,11.02-.79-6.68-1.32-13.27-2.38-19.77-4.67-28.74-35.11-39.19-57.56-27.53-18.83,9.78-27.84,26.3-30.56,46.76-.38,2.86-.54,5.74-.8,8.62-.01.14-.1.28-.36.95-.87-1.23-1.59-2.23-2.29-3.24-9-12.89-21.26-19.55-37-17.62-14.64,1.8-25.27,10.32-31.5,23.45-9.98,21.01-3.45,40.76,17.57,54.99,10.38,7.03,21.41,13.19,31.28,20.86,15.2,11.82,24.83,26.92,22.89,48.1-6.61-22.52-23.43-34.69-41.65-45.8-16.29-9.94-33.57-18.22-48.43-30.56-24.27-20.18-33.7-52.77-22.42-82.15,6.17-16.07,18.24-25.78,35.11-29.79,22.42-5.32,47.22,3.07,60.1,20.93,2.35,3.26,4.03,6.99,6.02,10.5.23-.05.45-.1.68-.15Z"/>
  <path class="cls-3" d="m414.44,563.03v28.47h-10.44v-63.62h10.44v29.02l24.71-29.02h13.09l-27.64,31.85,28.1,31.76h-13.64l-24.62-28.47Z"/>
  <path class="cls-3" d="m461.95,523.76h10.44v67.74h-10.44v-67.74Z"/>
  <path class="cls-3" d="m486.11,541.06h10.44v50.44h-10.44v-50.44Z"/>
  <path class="cls-3" d="m531.51,540.23c12.36,0,20.41,6.13,23.25,16.75h-11.26c-1.74-4.85-5.77-7.96-11.99-7.96-8.42,0-14,6.22-14,17.21s5.58,17.3,14,17.3c6.22,0,10.07-2.75,11.99-7.96h11.26c-2.84,9.89-10.89,16.75-23.25,16.75-14.46,0-24.71-10.25-24.71-26.09s10.25-26,24.71-26Z"/>
  <path class="cls-3" d="m565.2,523.76h10.44v39.36l18.31-22.06h14.46l-23.25,25.26,23.25,25.17h-14.1l-18.67-21.69v21.69h-10.44v-67.74Z"/>
  <g>
    <path class="cls-2" d="m425.97,647.68h-11.53v25.81h-10.44v-63.62h21.97c15.1,0,22.52,8.6,22.52,18.95,0,9.06-5.95,18.86-22.52,18.86Zm0-8.51c8.15,0,11.81-3.94,11.81-10.34s-3.66-10.44-11.81-10.44h-11.53v20.78h11.53Z"/>
    <path class="cls-2" d="m468.9,673.49h-10.44v-50.44h10.44v7.32c2.93-5.03,7.96-8.15,15.1-8.15v10.8h-2.65c-7.69,0-12.45,3.2-12.45,13.91v26.55Z"/>
    <path class="cls-2" d="m515.31,674.32c-14.46,0-25.17-10.25-25.17-26.09s10.25-26,25.17-26,24.53,9.98,24.53,24.81c0,1.74-.09,3.39-.37,5.13h-38.54c.73,8.33,6.68,13.36,14.37,13.36,6.41,0,9.98-3.11,11.9-7.05h11.26c-2.84,8.79-10.8,15.84-23.16,15.84Zm-14.28-30.57h27.92c-.18-7.78-6.32-12.72-14.1-12.72-7.05,0-12.72,4.76-13.82,12.72Z"/>
  </g>
  <g>
    <path class="cls-3" d="m560.53,609.88v55.2h21.51v8.42h-31.95v-63.62h10.44Z"/>
    <path class="cls-3" d="m612.61,674.32c-14.37,0-25.26-10.25-25.26-26.09s11.35-26,25.72-26,25.72,10.16,25.72,26-11.72,26.09-26.18,26.09Zm0-9.06c7.78,0,15.47-5.58,15.47-17.03s-7.42-16.93-15.2-16.93-14.92,5.49-14.92,16.93,6.77,17.03,14.65,17.03Z"/>
    <path class="cls-3" d="m654.35,623.06l14.28,41.1,14.28-41.1h11.08l-19.22,50.44h-12.45l-19.13-50.44h11.17Z"/>
    <path class="cls-3" d="m723.55,674.32c-14.46,0-25.17-10.25-25.17-26.09s10.25-26,25.17-26,24.53,9.98,24.53,24.81c0,1.74-.09,3.39-.37,5.13h-38.54c.73,8.33,6.68,13.36,14.37,13.36,6.41,0,9.98-3.11,11.9-7.05h11.26c-2.84,8.79-10.8,15.84-23.16,15.84Zm-14.28-30.57h27.92c-.18-7.78-6.32-12.72-14.1-12.72-7.05,0-12.72,4.76-13.82,12.72Z"/>
    <path class="cls-3" d="m778.74,622.23c6.59,0,13.55,3.11,17.39,7.87v-24.35h10.53v67.74h-10.53v-7.6c-3.2,4.58-9.25,8.42-17.48,8.42-13.27,0-23.8-10.71-23.8-26.27s10.53-25.81,23.89-25.81Zm2.11,9.06c-7.78,0-15.29,5.86-15.29,16.75s7.51,17.21,15.29,17.21,15.29-6.13,15.29-17.03-7.41-16.93-15.29-16.93Z"/>
  </g>
  <g>
    <path class="cls-2" d="m708.32,580.54l-37.7,8.7-8.7-37.7c-2.35-10.18,4-20.34,14.19-22.69l.82-.19c10.18-2.35,20.34,4,22.69,14.19h0s0,0,0,0c10.18-2.35,20.34,4,22.69,14.19l.19.82c2.35,10.18-4,20.34-14.19,22.69Z"/>
    <path class="cls-2" d="m657.25,565.37l3.97,22.81-22.81,3.97c-6.16,1.07-12.03-3.05-13.1-9.22l-.09-.49c-1.07-6.16,3.05-12.03,9.22-13.1h0,0c-1.07-6.16,3.05-12.03,9.22-13.1l.49-.09c6.16-1.07,12.03,3.05,13.1,9.22Z"/>
    <path class="cls-2" d="m661.46,533.31l-9.05,11.59-11.59-9.05c-3.13-2.44-3.69-6.96-1.24-10.1l.2-.25c2.44-3.13,6.96-3.69,10.1-1.24h0s0,0,0,0c2.44-3.13,6.96-3.69,10.1-1.24l.25.2c3.13,2.44,3.69,6.96,1.24,10.1Z"/>
  </g>
  <path class="cls-1" d="m496.72,521.36c.69.34,1.22.82,1.6,1.42.38.61.55,1.33.52,2.19-.04.85-.33,1.73-.87,2.63-.24.38-.53.77-.88,1.18-.35.41-.67.75-.95,1.03-.28.28-.76.69-1.45,1.22-.69.53-1.2.93-1.53,1.18-.34.25-1.02.76-2.05,1.52-.98-.8-1.63-1.33-1.95-1.6s-.82-.69-1.48-1.26c-.66-.57-1.12-1-1.38-1.29-.26-.29-.56-.65-.9-1.07-.34-.42-.61-.84-.83-1.23-.51-.96-.75-1.85-.73-2.67.02-.82.23-1.54.62-2.14.4-.61.95-1.05,1.66-1.34.96-.43,1.97-.45,3.04-.05,1.07.4,1.81,1.08,2.23,2.04.45-.94,1.22-1.58,2.31-1.93,1.09-.34,2.1-.28,3.04.19Z"/>
</svg>