<svg width="75" height="75" viewBox="0 0 75 75" fill="none" xmlns="http://www.w3.org/2000/svg">
<rect x="0.25" y="0.25" width="74.5" height="74.5" rx="37.25" stroke="#00A3E0" stroke-width="0.5"/>
<path d="M36.9438 15.4824C37.4638 15.1737 38.0975 15.1737 38.6013 15.4824L56.3463 26.2724C56.7688 26.5324 57.0287 27.0037 57.0287 27.4912L37.7725 40.4375L18.5 27.652V27.4895C18.5 27.002 18.76 26.5308 19.1825 26.287L36.9438 15.4824Z" fill="#F3C07B"/>
<path d="M37.766 38.3998L56.226 27.1873C56.3069 27.139 56.3992 27.1131 56.4935 27.1121C56.5877 27.1111 56.6805 27.1351 56.7624 27.1817C56.8444 27.2283 56.9125 27.2958 56.9598 27.3772C57.0072 27.4587 57.0321 27.5513 57.032 27.6455V47.698C57.0322 48.1809 56.9083 48.6557 56.6721 49.0769C56.4359 49.4981 56.0954 49.8514 55.6833 50.103L38.3933 60.6005C38.3492 60.6247 38.3014 60.6412 38.2519 60.6493C38.2081 60.6623 38.1626 60.6683 38.117 60.6672C37.9325 60.7188 37.7396 60.7334 37.5494 60.7103C37.3592 60.6871 37.1755 60.6267 37.0088 60.5323H37.0185L33.125 42.875L37.766 38.3998Z" fill="#FFCE7C"/>
<path d="M37.7725 60.1358V38.4095L19.3288 27.197C19.2473 27.1447 19.1533 27.1152 19.0565 27.1119C18.9598 27.1085 18.8639 27.1314 18.779 27.178C18.6942 27.2245 18.6234 27.2932 18.5743 27.3766C18.5252 27.4601 18.4995 27.5552 18.5 27.652V47.7045C18.5 48.6958 19.02 49.6058 19.8488 50.1095L37.025 60.542C37.0983 60.5882 37.1826 60.6141 37.2692 60.6169C37.3559 60.6197 37.4417 60.5994 37.5178 60.558C37.594 60.5166 37.6577 60.4557 37.7025 60.3814C37.7472 60.3072 37.7714 60.2224 37.7725 60.1358Z" fill="#E19747"/>
<path d="M35.5625 55.5207V52.3357C35.5625 51.962 35.3675 51.6207 35.0587 51.4257L30.5087 48.6795C30.2 48.5007 29.81 48.712 29.81 49.0695V52.2545C29.81 52.6282 30.005 52.9695 30.3137 53.1645L34.8637 55.9107C35.1725 56.0895 35.5625 55.8782 35.5625 55.5207Z" fill="#D3D3D3"/>
<path d="M31.11 38.8986V31.487L25.78 31.1295V36.2645C25.78 36.427 25.8613 36.5895 26.0075 36.687L30.3625 39.3358C30.6875 39.5145 31.11 39.2886 31.11 38.8986Z" fill="#8C5543"/>
<path d="M45.0525 19.4149L25.78 31.1312L31.11 34.3812L50.3825 22.6812L45.0525 19.4149Z" fill="#A56953"/>
</svg>
