<svg width="1058" height="353" viewBox="0 0 1058 353" fill="none" xmlns="http://www.w3.org/2000/svg">
<path d="M1.5 177C1.5 153.953 6.03944 131.132 14.8591 109.839C23.6788 88.5464 36.6061 69.1995 52.9028 52.9028C69.1994 36.6061 88.5464 23.6788 109.839 14.8591C131.132 6.03944 153.953 1.5 177 1.5C200.047 1.5 222.868 6.03944 244.161 14.8591C265.454 23.6788 284.801 36.6061 301.097 52.9028C317.394 69.1994 330.321 88.5464 339.141 109.839C347.961 131.132 352.5 153.953 352.5 177" stroke="#00A3E0" stroke-dasharray="10 10"/>
<path d="M353.5 177C353.5 153.953 358.039 131.132 366.859 109.839C375.679 88.5464 388.606 69.1995 404.903 52.9028C421.199 36.6061 440.546 23.6788 461.839 14.8591C483.132 6.03944 505.953 1.5 529 1.5C552.047 1.5 574.868 6.03944 596.161 14.8591C617.454 23.6788 636.801 36.6061 653.097 52.9028C669.394 69.1994 682.321 88.5464 691.141 109.839C699.961 131.132 704.5 153.953 704.5 177" stroke="#00A3E0" stroke-dasharray="10 10"/>
<path d="M705.5 177C705.5 153.953 710.039 131.132 718.859 109.839C727.679 88.5464 740.606 69.1995 756.903 52.9028C773.199 36.6061 792.546 23.6788 813.839 14.8591C835.132 6.03944 857.953 1.5 881 1.5C904.047 1.5 926.868 6.03944 948.161 14.8591C969.454 23.6788 988.801 36.6061 1005.1 52.9028C1021.39 69.1994 1034.32 88.5464 1043.14 109.839C1051.96 131.132 1056.5 153.953 1056.5 177" stroke="#00A3E0" stroke-dasharray="10 10"/>
</svg>
